<svg xmlns="http://www.w3.org/2000/svg" version="1.1" xmlns:xlink="http://www.w3.org/1999/xlink" width="200" height="200"><svg xmlns="http://www.w3.org/2000/svg" version="1.1" xmlns:xlink="http://www.w3.org/1999/xlink" viewBox="0 0 200 200"><rect width="200" height="200" fill="url('#gradient')"></rect><defs><linearGradient id="SvgjsLinearGradient1001" gradientTransform="rotate(45 0.5 0.5)"><stop offset="0%" stop-color="#328c78"></stop><stop offset="100%" stop-color="#afa54e"></stop></linearGradient></defs><g><g fill="#f6ebbc" transform="matrix(3.814569536423841,0,0,3.814569536423841,8.053235415591317,127.12584625016774)" stroke="#dba545" stroke-width="0"><path d="M0.52-4.82L0.51-5.38Q0.51-6.96 1.12-8.20Q1.74-9.43 2.89-10.10Q4.04-10.76 5.60-10.76L5.60-10.76Q7.97-10.76 9.34-9.29Q10.70-7.82 10.70-5.29L10.70-5.29L10.70-5.18Q10.70-2.71 9.33-1.25Q7.96 0.20 5.62 0.20L5.62 0.20Q3.36 0.20 1.99-1.16Q0.63-2.51 0.52-4.82L0.52-4.82ZM3.81-5.77L3.80-5.18Q3.80-3.71 4.26-3.03Q4.72-2.34 5.62-2.34L5.62-2.34Q7.37-2.34 7.41-5.05L7.41-5.05L7.41-5.38Q7.41-8.22 5.60-8.22L5.60-8.22Q3.95-8.22 3.81-5.77L3.81-5.77ZM19.64-3.78L19.64-3.78Q19.64-4.53 19.11-4.95Q18.57-5.37 17.24-5.82Q15.90-6.27 15.05-6.69L15.05-6.69Q12.29-8.05 12.29-10.42L12.29-10.42Q12.29-11.60 12.97-12.50Q13.66-13.41 14.92-13.91Q16.18-14.41 17.75-14.41L17.75-14.41Q19.29-14.41 20.50-13.87Q21.72-13.32 22.39-12.31Q23.07-11.30 23.07-10L23.07-10L19.65-10Q19.65-10.87 19.12-11.35Q18.58-11.83 17.68-11.83L17.68-11.83Q16.76-11.83 16.23-11.42Q15.69-11.02 15.69-10.39L15.69-10.39Q15.69-9.84 16.28-9.40Q16.87-8.96 18.34-8.48Q19.81-8.01 20.76-7.46L20.76-7.46Q23.07-6.13 23.07-3.80L23.07-3.80Q23.07-1.93 21.66-0.87Q20.25 0.20 17.80 0.20L17.80 0.20Q16.07 0.20 14.67-0.42Q13.27-1.04 12.56-2.12Q11.86-3.20 11.86-4.61L11.86-4.61L15.29-4.61Q15.29-3.47 15.88-2.92Q16.47-2.38 17.80-2.38L17.80-2.38Q18.65-2.38 19.15-2.75Q19.64-3.12 19.64-3.78ZM24.27-4.82L24.26-5.38Q24.26-6.96 24.87-8.20Q25.49-9.43 26.64-10.10Q27.79-10.76 29.35-10.76L29.35-10.76Q31.72-10.76 33.09-9.29Q34.45-7.82 34.45-5.29L34.45-5.29L34.45-5.18Q34.45-2.71 33.08-1.25Q31.71 0.20 29.37 0.20L29.37 0.20Q27.11 0.20 25.74-1.16Q24.38-2.51 24.27-4.82L24.27-4.82ZM27.56-5.77L27.55-5.18Q27.55-3.71 28.01-3.03Q28.47-2.34 29.37-2.34L29.37-2.34Q31.12-2.34 31.16-5.05L31.16-5.05L31.16-5.38Q31.16-8.22 29.35-8.22L29.35-8.22Q27.70-8.22 27.56-5.77L27.56-5.77ZM47.70-7.60L47.70-1.76Q46.90-0.88 45.38-0.34Q43.86 0.20 42.04 0.20L42.04 0.20Q39.25 0.20 37.58-1.51Q35.91-3.22 35.79-6.27L35.79-6.27L35.78-7.50Q35.78-9.60 36.52-11.17Q37.27-12.73 38.65-13.58Q40.03-14.42 41.85-14.42L41.85-14.42Q44.50-14.42 45.97-13.21Q47.44-11.99 47.69-9.58L47.69-9.58L44.38-9.58Q44.21-10.77 43.62-11.28Q43.04-11.79 41.96-11.79L41.96-11.79Q40.67-11.79 39.97-10.69Q39.27-9.60 39.26-7.57L39.26-7.57L39.26-6.71Q39.26-4.58 39.99-3.51Q40.71-2.44 42.28-2.44L42.28-2.44Q43.61-2.44 44.27-3.04L44.27-3.04L44.27-5.24L41.88-5.24L41.88-7.60L47.70-7.60Z"></path></g></g></svg><style>@media (prefers-color-scheme: light) { :root { filter: none; } }
@media (prefers-color-scheme: dark) { :root { filter: none; } }
</style></svg>